<?xml version="1.0" encoding="UTF-8"?>
<svg id="Layer_1" data-name="Layer 1" xmlns="http://www.w3.org/2000/svg" viewBox="0 0 419.53 595.28">
  <path d="m271.79,420.4c3.42,2.34,6.84,4.7,10.27,7.03.51.34,1.05.64,1.61.89,3.39,1.5,4.26.98,4.43-2.82,7.94,3.56,16.28,4.55,24.81,4.35,1.23-.03,2.46-.14,3.67-.36,6.55-1.21,7.62-1.67,8.29-8.35,1.34-13.22,2.49-26.5,2.8-39.78.43-18.22-.06-36.45-.03-54.68.03-19.85.19-39.69.35-59.54.05-5.55.28-11.09.53-16.63.13-2.95-1.06-4.38-4.07-4.28-15.49.53-31.1-.02-46.09,5.05-1.16.39-2.47.63-3.42,1.33-3.84,2.82-7.65,3.71-11.92.85-.59-.4-2.16.03-2.91.58-8.94,6.64-13.96,3.58-19.91-4.82-4.56-6.43-6.57-14.72-9.4-22.3-.54-1.46-.12-3.68.64-5.15,2.59-4.96,3.63-10.12,3.45-15.67-.46-14.16-.72-28.33-1.2-42.48-.44-13.1-2.43-25.96-6.14-38.56-.58-1.95-.24-4.17-.32-6.27,2.18.43,4.65.35,6.5,1.38,6.74,3.78,13.22,4.79,21.13,2.85,15.37-3.77,31.11-6,46.66-9.02,3.6-.7,7.13-1.89,10.6-3.11.95-.34,1.83-1.49,2.3-2.49,2.73-5.89,6.38-7.84,12.49-5.66,7.29,2.61,14.39,5.73,21.54,8.7.63.26,1.11.93,1.59,1.47,2.41,2.69,4.56,5.66,7.24,8.05,4.23,3.78,8.66,7.25,11.26,12.55.88,1.79,2.76,3.1,4.2,4.62,3.55,3.75,3.38,5.66,1.17,10.13-5.32,10.73-9.28,21.9-10.04,34.07-.41,6.61-1.89,13.14-2.43,19.75-.86,10.55-1.39,21.13-1.99,31.7-.58,10.19-1.2,20.38-1.57,30.58-.2,5.38.36,10.8.08,16.17-.28,5.37-1.53,10.71-1.7,16.08-.29,8.97-.18,17.96,0,26.94.17,8.25,2,16.71.72,24.69-2.17,13.55-.51,26.99-.88,40.46-.24,8.7.97,17.43.93,26.15-.03,6-1.24,11.99-1.61,18.01-.25,4.16-.41,8.41.21,12.5.66,4.32.28,8.28-1.36,12.24-1.37,3.29-2.6,6.65-4.08,9.89-.48,1.04-1.41,2.32-2.39,2.6-4.09,1.15-6.83,3.84-9.05,7.19-1.84,2.79-3.92,3.27-6.75,1.41-3.9-2.56-7.98-4.86-11.85-7.46-.93-.62-1.51-1.91-2.04-2.99-4.39-8.9-9.21-17.33-18.25-22.6-4.76-2.78-9.26-6.15-13.45-9.75-5.36-4.62-10.29-9.75-15.4-14.66.26-.28.53-.55.79-.83Zm55.04-286.47c-.96,0-1.81-.09-2.64.01-19.07,2.49-37.79,6.42-55.67,13.7-1.04.42-2.26,1.72-2.42,2.76-1.07,6.8-2.05,13.62-2.69,20.46-.58,6.15-.19,6.33,5.98,5.3.48-.08.98-.08,1.47-.15,13.26-1.88,26.46-3.85,38.17-11.2,1.58-.99,4.15-.68,6.23-.53,3.54.27,7.05,1.08,10.59,1.23.84.04,2.52-1.64,2.5-2.5-.16-9.1-.57-18.2-.95-27.3-.02-.57-.35-1.13-.57-1.78Zm-64.3,97.16c1.2,0,2.05.12,2.85-.02,5.81-1,11.58-2.39,17.43-3,11.36-1.19,22.21-3.98,32.53-8.89,1-.48,2.57-.09,3.78.25,3.11.87,6.16,1.93,9.42,2.98,0-9.03.1-17.37-.03-25.71-.13-8.29-2.12-9.59-10.26-7.08-12.44,3.83-24.93,7.51-37.3,11.55-4.36,1.43-8.12,2.09-12.49-.39-4.06-2.3-5.75-1.15-5.87,3.44-.23,8.83-.07,17.66-.07,26.87Z"/>
  <path d="m101.57,306.2c-1.25,20.52-2.57,41.03-3.71,61.55-.7,12.67-1.45,25.35-1.55,38.03-.13,15.81-1.31,31.53-3.06,47.22-.3,2.68-.06,5.42-.15,8.13-.19,5.55-1.92,6.68-7.23,7.3-7.74.9-12.68-2.47-17.16-8.31-6.02-7.86-10.59-15.95-9.82-26.3.13-1.78-.86-3.81-1.81-5.45-1.9-3.26-2.12-6.1-.23-9.65,5-9.4,5.06-19.89,5.83-30.21,1.65-22.22,3.39-44.44,5.07-66.66.25-3.32.54-6.64.54-9.97,0-21.44.28-42.89-.26-64.31-.61-24.26-1.78-48.52-3.18-72.75-.38-6.54-2.05-13.11-3.91-19.43-1.96-6.66-4.84-13.06-7.38-19.54-1.12-2.86.08-4.98,2.66-5.35,2.52-.36,5.58-.15,7.76,1.02,6.48,3.49,12.58,7.66,18.96,11.34,1.41.81,3.51,1.33,5.01.92,17.45-4.69,34.86-9.58,52.27-14.44,3.81-1.07,7.15-2.71,10.16-5.61,7.55-7.28,20.48-6.15,27.78,1.65,5.96,6.38,12.27,12.44,18.49,18.57,5.44,5.36,6.6,11.48,3.89,18.57-7.61,19.89-9.49,40.89-11.92,61.78-.3,2.54-1.3,4.99-1.77,7.52-.94,5.04-1.78,10.1-2.59,15.16-.4,2.54-.31,5.2-1.01,7.65-1.98,7.01-3.22,7.43-9.89,5.05-5.32-1.9-10.73-3.66-16.21-4.98-2.47-.59-5.25-.16-7.86.15-6.34.76-12.68,1.65-18.99,2.63-9.67,1.49-18.97,4.26-27.64,8.83-1.09.57-2.17,2.35-2.19,3.58-.16,12.08-.1,24.16-.1,36.24.4.02.8.04,1.2.07Zm-1.7-64.83c1.25-.14,2.35-.18,3.41-.4,5.9-1.19,11.82-2.3,17.68-3.68,12.3-2.91,24.57-5.94,36.82-9.05.72-.18,1.6-1.48,1.65-2.3.32-5.9.46-11.81.62-17.71.14-5-.09-5.27-5.07-5.29-18.16-.06-35.1,5.53-51.93,11.49-1.39.49-2.98,2.77-3.04,4.28-.31,7.35-.14,14.73-.14,22.66Zm2.59-75.41c1.84,8.1.53,15.53-1.6,22.93-.83,2.88.55,3.87,3.78,2.99,10.41-2.83,20.9-5.31,30.65-10.24,5.27-2.67,11.03-4.08,17.16-2.67,2.68.62,5.51.62,9.31,1.01-.85-9.05-1.39-17.47-2.53-25.82-.52-3.77-2.78-4.73-6.6-3.57-16.64,5.05-33.25,10.18-50.17,15.38Z"/>
  <path d="m150.21,274.64c1.97.96,4,1.81,5.9,2.9,4.67,2.7,9.16,5.74,13.97,8.16,1.51.76,3.84.19,5.72-.16,16.68-3.09,33.35-6.21,50-9.45,3.16-.62,6.07-1.81,7.38-5.39.23-.62,2.87-1.09,3.89-.58,7.05,3.49,14.04,7.13,20.91,10.97,4.62,2.58,9.03,5.54,13.5,8.38,3.22,2.05,5.01,4.45,5.41,8.82.44,4.85-.52,8.85-1.99,13.31-2.06,6.25-3.5,12.87-4.04,19.42-.99,12.15-.71,24.4-1.77,36.54-.8,9.16-2.8,18.21-4.44,27.28-.29,1.63-1.3,3.18-2.16,4.66-3.99,6.89-6.4,7.46-13.16,3.13-1.24-.79-2.76-1.57-3.41-2.76-2.38-4.35-6.48-5.05-10.69-5.28-16.27-.88-32.51-.86-48.53,2.83-3.46.8-6.53,2.09-8.57,5.23-1.75,2.71-4.08,3.06-6.57,1.07-2.39-1.91-5.27-3.61-6.85-6.09-6.18-9.71-10.47-20.06-8.06-32,2.68-13.22,1.77-26.5.56-39.76-1-10.91-2.09-21.81-3.58-32.66-.66-4.83-2.4-9.52-3.64-14.27-.27-1.04-.5-2.08-.76-3.12.33-.39.66-.78.99-1.18Zm78.14,69.47c-4.46.25-8.36,0-12.06.77-5.86,1.22-11.6,3.06-17.36,4.73-3.5,1.01-6.89,2.48-10.44,3.18-2.07.41-2.92.85-3.01,3.1-.25,6.76-.71,13.51-1.19,20.25-.16,2.24.85,2.74,2.83,2.68,12.2-.35,24.3-1.25,36.13-4.71,4.17-1.22,8.68-1.28,13-2.03,1.01-.17,2.49-.78,2.76-1.54,2.71-7.75,3.35-15.83,3.24-23.96-.01-.84-1.72-2.29-2.72-2.36-3.92-.28-7.87-.11-11.17-.11Zm13.5-18.87c0-9.48.21-18.06-.08-26.61-.17-5.09-2.14-6.36-7.26-5.52-3.51.58-6.95,1.69-10.47,2.08-12.52,1.35-24.04,5.88-35.46,10.78-2.98,1.28-4.64,3.34-4.62,6.8.03,5.29-.16,10.58-.36,15.86-.1,2.58,1.05,3.27,3.39,2.76,9.6-2.08,19.36-3.58,28.75-6.36,8.76-2.59,17.15-5.61,26.11.23Z"/>
</svg>